<mxfile host="app.diagrams.net" modified="2021-09-03T11:01:00.898Z" agent="5.0 (Macintosh; Intel Mac OS X 10_15_7) AppleWebKit/537.36 (KHTML, like Gecko) Chrome/92.0.4515.159 Safari/537.36" etag="8a0LOENvm9PK9BYNvLZ3" version="15.0.3" type="github">
  <diagram id="pPJiAlB7racQ1mecnm7M" name="第 1 页">
    <mxGraphModel dx="884" dy="662" grid="0" gridSize="10" guides="1" tooltips="1" connect="1" arrows="1" fold="1" page="1" pageScale="1" pageWidth="827" pageHeight="1169" math="0" shadow="0">
      <root>
        <mxCell id="0" />
        <mxCell id="1" parent="0" />
        <mxCell id="ztwY7_2-lBhnV4_P92-4-1" value="" style="rounded=0;whiteSpace=wrap;html=1;fillColor=#f8cecc;strokeColor=#b85450;" vertex="1" parent="1">
          <mxGeometry x="211.5" y="171" width="350.5" height="106" as="geometry" />
        </mxCell>
        <mxCell id="ztwY7_2-lBhnV4_P92-4-2" value="Controller层" style="text;html=1;strokeColor=none;fillColor=none;align=center;verticalAlign=middle;whiteSpace=wrap;rounded=0;" vertex="1" parent="1">
          <mxGeometry x="329" y="174" width="95" height="24" as="geometry" />
        </mxCell>
        <mxCell id="ztwY7_2-lBhnV4_P92-4-3" value="api" style="rounded=1;whiteSpace=wrap;html=1;fillColor=#d5e8d4;strokeColor=#82b366;" vertex="1" parent="1">
          <mxGeometry x="332" y="212" width="82" height="50" as="geometry" />
        </mxCell>
      </root>
    </mxGraphModel>
  </diagram>
</mxfile>
